<svg width="88" height="88" viewBox="0 0 88 88" fill="none" xmlns="http://www.w3.org/2000/svg">
<path d="M44 0C19.726 0 0 19.726 0 44C0 68.274 19.726 88 44 88C68.274 88 88 68.274 88 44C88 19.726 68.274 0 44 0ZM44 3.82609C66.2053 3.82609 84.1739 21.7947 84.1739 44C84.1739 44.1365 84.1641 44.2711 84.1627 44.4073C82.9391 44.2943 81.5253 44.1871 79.7276 44.1233C77.1857 44.0332 73.9817 44.0593 70.3492 44.2391C70.4839 43.3011 70.5783 42.3498 70.5808 41.3733C70.7661 37.7909 69.5631 34.4395 67.6067 31.4793C68.0793 29.8461 68.6338 27.7682 68.7724 25.4113C68.9304 22.7249 68.6985 19.746 66.5418 17.733L65.9888 17.2174H65.234C60.1012 17.2174 56.5879 19.3661 54.4395 21.0696C51.3375 19.8689 47.8495 19.1304 44 19.1304C40.1287 19.1304 36.6071 19.8792 33.3774 21.0771C31.2303 19.3728 27.7139 17.2174 22.5754 17.2174H21.8244L21.2714 17.7293C19.1705 19.6801 18.977 22.5773 19.108 25.2507C19.2236 27.6081 19.7459 29.7519 20.2103 31.4643C18.2208 34.4823 17.0268 37.9204 17.0268 41.321C17.0268 42.2998 17.1179 43.2541 17.251 44.1943C13.7965 44.0341 10.7171 44.0032 8.27242 44.0897C6.47472 44.1533 5.06085 44.2596 3.8373 44.3736C3.83615 44.2486 3.82609 44.1253 3.82609 44C3.82609 21.7947 21.7947 3.82609 44 3.82609ZM23.715 21.2938C27.5747 21.6596 30.4786 23.3831 31.823 24.5781L32.7198 25.3702L33.8257 24.9181C36.8511 23.6724 40.2255 22.9565 44 22.9565C47.7745 22.9565 51.1498 23.676 53.9463 24.8995L55.0673 25.3927L55.9827 24.5781C57.3276 23.3827 60.2364 21.6586 64.0982 21.2938C64.6116 22.1451 65.0578 23.3557 64.9501 25.1872C64.8211 27.379 64.2348 29.7663 63.7918 31.1841L63.5041 32.107L64.0757 32.8879C65.9687 35.4691 66.9338 38.2627 66.7697 41.2164L66.766 41.2687V41.321C66.766 46.0949 65.0469 49.9158 61.3855 52.7469C57.7243 55.5781 51.9442 57.3913 43.8094 57.3913C35.6747 57.3913 29.891 55.5781 26.2296 52.7469C22.5683 49.9158 20.8529 46.0949 20.8529 41.321C20.8529 38.5189 21.8648 35.4365 23.7337 32.8879L24.2942 32.1257L24.0251 31.2177C23.5818 29.7105 23.0384 27.2687 22.9304 25.0639C22.8405 23.23 23.2745 22.0708 23.715 21.2938ZM13.1709 45.9541C14.5228 45.9714 16.0724 46.0444 17.6247 46.1223C17.773 46.7188 17.9421 47.3055 18.1478 47.8784C11.8206 48.0118 7.08731 48.6481 4.16984 49.1936C4.04648 48.2364 3.94823 47.2713 3.89334 46.2942C6.04944 46.0895 9.08886 45.902 13.1709 45.9541ZM74.8291 45.984C78.9083 45.9322 81.9466 46.12 84.1029 46.324C84.0481 47.2872 83.9515 48.2387 83.8302 49.1824C80.8084 48.6281 75.9472 47.9919 69.4562 47.8896C69.6576 47.3281 69.8254 46.7514 69.9718 46.1671C71.6842 46.0753 73.3548 46.0028 74.8291 45.984ZM18.9623 49.7765C20.1039 52.0641 21.7351 54.1066 23.8906 55.7734C26.8378 58.0523 30.6692 59.6446 35.3465 60.4963C34.7346 61.125 34.178 61.8154 33.6838 62.5438L33.5679 62.4429C33.5785 62.4309 32.6169 62.9121 31.1804 63.0408C29.7438 63.1694 27.9718 63.1304 26.4015 63.1304C24.058 63.1304 23.0258 62.0232 21.376 60.0068C20.4625 58.7755 19.3487 57.7784 18.2673 57.0214C17.16 56.2463 16.2155 55.6992 15.0465 55.5044L14.8896 55.4783H14.7289C13.8362 55.4783 12.9723 55.5429 12.1658 56.4647C11.7625 56.9256 11.4845 57.7788 11.6651 58.501C11.8456 59.2232 12.3025 59.667 12.7113 59.9395C15.3259 61.6826 15.788 65.1325 17.4266 68.2007C18.9569 71.25 22.2595 72.6957 25.6355 72.6957H30.6087V81.8835C17.1558 77.1349 7.01069 65.4349 4.46128 51.0842C7.38996 50.5326 12.2942 49.8694 18.9623 49.7765ZM68.6454 49.7914C75.461 49.8498 80.5029 50.5121 83.5425 51.073C80.9964 65.429 70.8478 77.1337 57.3913 81.8835V71.9297C57.3913 68.8983 56.3958 65.5556 54.6637 62.768C54.1378 61.9217 53.5192 61.1212 52.8291 60.4029C57.2583 59.5279 60.8967 57.963 63.7283 55.7734C65.8791 54.1103 67.5067 52.0739 68.6454 49.7914ZM41.5115 61.4079H46.8696C48.4245 61.4079 50.0843 62.6472 51.413 64.7857C52.7418 66.9241 53.5652 69.7958 53.5652 71.9297V83.0231C50.4994 83.7707 47.2977 84.1739 44 84.1739C40.7023 84.1739 37.5006 83.7707 34.4348 83.0231V71.9297C34.4348 69.8431 35.3298 66.9782 36.7476 64.8305C38.1655 62.6829 39.9566 61.4079 41.5115 61.4079ZM19.7208 63.6685C21.3771 65.3864 23.3822 66.9565 26.4015 66.9565C27.8921 66.9565 29.7526 67.0102 31.5204 66.8519C31.5267 66.8513 31.5328 66.8487 31.5391 66.8482C31.3062 67.5177 31.1324 68.1914 30.9861 68.8696H25.6355C23.2761 68.8696 21.6093 68.0172 20.8417 66.482L20.8268 66.4558L20.8156 66.4334C20.501 65.8492 20.0882 64.6811 19.7208 63.6685Z" fill="#358A80"/>
</svg>
