<svg width="415" height="231" viewBox="0 0 415 231" fill="none" xmlns="http://www.w3.org/2000/svg">
<path d="M406.481 0H8.51906C3.81411 0 0 3.81029 0 8.51053V21.8842C0 26.5844 3.81411 30.3947 8.51906 30.3947H406.481C411.186 30.3947 415 26.5844 415 21.8842V8.51053C415 3.81029 411.186 0 406.481 0Z" fill="black"/>
<path d="M406.481 66.8684H8.51906C3.81411 66.8684 0 70.6787 0 75.3789V88.7526C0 93.4529 3.81411 97.2631 8.51906 97.2631H406.481C411.186 97.2631 415 93.4529 415 88.7526V75.3789C415 70.6787 411.186 66.8684 406.481 66.8684Z" fill="black"/>
<path d="M406.481 133.737H8.51906C3.81411 133.737 0 137.547 0 142.247V155.621C0 160.321 3.81411 164.132 8.51906 164.132H406.481C411.186 164.132 415 160.321 415 155.621V142.247C415 137.547 411.186 133.737 406.481 133.737Z" fill="black"/>
<path d="M406.481 200.605H8.51906C3.81411 200.605 0 204.416 0 209.116V222.489C0 227.19 3.81411 231 8.51906 231H406.481C411.186 231 415 227.19 415 222.489V209.116C415 204.416 411.186 200.605 406.481 200.605Z" fill="black"/>
</svg>
