<svg xmlns="http://www.w3.org/2000/svg" version="1.1" xmlns:xlink="http://www.w3.org/1999/xlink" xmlns:svgjs="http://svgjs.dev/svgjs" width="1440" height="560" preserveAspectRatio="none" viewBox="0 0 1440 560"><g mask="url(&quot;#SvgjsMask1408&quot;)" fill="none"><g transform="translate(-28.8, 5.6)" stroke-linecap="round" stroke="url(&quot;#SvgjsLinearGradient1409&quot;)"><path d="M264 155.71 L264 404.29" stroke-width="18"></path><path d="M288 117.9 L288 153.9" stroke-width="18"></path><path d="M288 180.9 L288 270.9" stroke-width="18"></path><path d="M288 297.9 L288 442.11" stroke-width="18"></path><path d="M312 205.19 L312 259.19" stroke-width="18"></path><path d="M312 286.19 L312 354.81" stroke-width="18"></path><path d="M336 143.46 L336 416.54" stroke-width="18"></path><path d="M360 262.47 L360 297.54" stroke-width="18"></path><path d="M384 245.44 L384 314.56" stroke-width="18"></path><path d="M408 222.52 L408 240.52" stroke-width="18"></path><path d="M408 267.52 L408 285.52" stroke-width="18"></path><path d="M408 312.52 L408 337.48" stroke-width="18"></path><path d="M432 252.28 L432 307.73" stroke-width="18"></path><path d="M456 132.36 L456 294.36" stroke-width="18"></path><path d="M456 321.36 L456 427.64" stroke-width="18"></path><path d="M480 134.75 L480 332.75" stroke-width="18"></path><path d="M480 359.75 L480 377.75" stroke-width="18"></path><path d="M480 404.75 L480 425.25" stroke-width="18"></path><path d="M504 125.76 L504 143.76" stroke-width="18"></path><path d="M504 170.76 L504 314.76" stroke-width="18"></path><path d="M504 341.76 L504 434.24" stroke-width="18"></path><path d="M528 242.9 L528 260.9" stroke-width="18"></path><path d="M528 287.9 L528 317.11" stroke-width="18"></path><path d="M552 129.88 L552 291.88" stroke-width="18"></path><path d="M552 318.88 L552 372.88" stroke-width="18"></path><path d="M552 399.88 L552 430.12" stroke-width="18"></path><path d="M576 140.51 L576 419.49" stroke-width="18"></path><path d="M600 266.22 L600 293.78" stroke-width="18"></path><path d="M624 268.07 L624 291.93" stroke-width="18"></path><path d="M648 185.64 L648 221.64" stroke-width="18"></path><path d="M648 248.64 L648 284.64" stroke-width="18"></path><path d="M648 311.64 L648 374.36" stroke-width="18"></path><path d="M672 208.56 L672 244.56" stroke-width="18"></path><path d="M672 271.56 L672 289.56" stroke-width="18"></path><path d="M672 316.56 L672 351.44" stroke-width="18"></path><path d="M696 108.06 L696 360.06" stroke-width="18"></path><path d="M696 387.06 L696 451.94" stroke-width="18"></path><path d="M720 169.88 L720 295.88" stroke-width="18"></path><path d="M720 322.88 L720 390.12" stroke-width="18"></path><path d="M744 251.09 L744 308.92" stroke-width="18"></path><path d="M768 170.64 L768 260.64" stroke-width="18"></path><path d="M768 287.64 L768 389.36" stroke-width="18"></path><path d="M792 119.74 L792 281.74" stroke-width="18"></path><path d="M792 308.74 L792 326.74" stroke-width="18"></path><path d="M792 353.74 L792 440.26" stroke-width="18"></path><path d="M816 113.36 L816 257.36" stroke-width="18"></path><path d="M816 284.36 L816 356.36" stroke-width="18"></path><path d="M816 383.36 L816 446.64" stroke-width="18"></path><path d="M840 118.75 L840 316.75" stroke-width="18"></path><path d="M840 343.75 L840 361.75" stroke-width="18"></path><path d="M840 388.75 L840 441.25" stroke-width="18"></path><path d="M864 256.15999999999997 L864 303.85" stroke-width="18"></path><path d="M888 141.99 L888 418.01" stroke-width="18"></path><path d="M912 132.25 L912 330.25" stroke-width="18"></path><path d="M912 357.25 L912 375.25" stroke-width="18"></path><path d="M912 402.25 L912 427.75" stroke-width="18"></path><path d="M936 265.22 L936 294.78" stroke-width="18"></path><path d="M960 243.46 L960 261.46000000000004" stroke-width="18"></path><path d="M960 288.46000000000004 L960 316.54" stroke-width="18"></path><path d="M984 107.7 L984 125.7" stroke-width="18"></path><path d="M984 152.7 L984 452.3" stroke-width="18"></path><path d="M1008 208.29 L1008 226.29" stroke-width="18"></path><path d="M1008 253.29 L1008 351.71" stroke-width="18"></path><path d="M1032 169.62 L1032 331.62" stroke-width="18"></path><path d="M1032 358.62 L1032 390.38" stroke-width="18"></path><path d="M1056 223.92 L1056 259.91999999999996" stroke-width="18"></path><path d="M1056 286.91999999999996 L1056 336.08" stroke-width="18"></path><path d="M1080 130.81 L1080 220.81" stroke-width="18"></path><path d="M1080 247.81 L1080 429.19" stroke-width="18"></path><path d="M1104 157.46 L1104 211.46" stroke-width="18"></path><path d="M1104 238.46 L1104 402.54" stroke-width="18"></path><path d="M1128 227.69 L1128 263.69" stroke-width="18"></path><path d="M1128 290.69 L1128 332.31" stroke-width="18"></path><path d="M1152 201.9 L1152 219.9" stroke-width="18"></path><path d="M1152 246.9 L1152 358.1" stroke-width="18"></path><path d="M1176 164.87 L1176 236.87" stroke-width="18"></path><path d="M1176 263.87 L1176 299.87" stroke-width="18"></path><path d="M1176 326.87 L1176 395.13" stroke-width="18"></path></g></g><defs><mask id="SvgjsMask1408"><rect width="1440" height="560" fill="#ffffff"></rect></mask><linearGradient x1="252" y1="280" x2="1188" y2="280" gradientUnits="userSpaceOnUse" id="SvgjsLinearGradient1409"><stop stop-color="rgba(63, 255, 203, 1)" offset="0"></stop><stop stop-color="rgba(17, 221, 102, 1)" offset="1"></stop></linearGradient></defs></svg>